<mxfile host="app.diagrams.net" agent="Mozilla/5.0 (Windows NT 10.0; Win64; x64) AppleWebKit/537.36 (KHTML, like Gecko) Chrome/129.0.0.0 Safari/537.36" version="24.7.16">
  <diagram id="R2lEEEUBdFMjLlhIrx00" name="Page-1">
    <mxGraphModel dx="1050" dy="557" grid="1" gridSize="10" guides="1" tooltips="1" connect="1" arrows="1" fold="1" page="1" pageScale="1" pageWidth="850" pageHeight="1100" math="0" shadow="0" extFonts="Permanent Marker^https://fonts.googleapis.com/css?family=Permanent+Marker">
      <root>
        <mxCell id="0" />
        <mxCell id="1" parent="0" />
        <mxCell id="3IWlOYprFqnitsd2QqqG-2" value="teacher" style="rounded=0;whiteSpace=wrap;html=1;fontSize=38;labelBackgroundColor=none;fillColor=#09555B;strokeColor=#BAC8D3;fontColor=#EEEEEE;" vertex="1" parent="1">
          <mxGeometry x="590" y="200" width="160" height="80" as="geometry" />
        </mxCell>
        <mxCell id="3IWlOYprFqnitsd2QqqG-3" value="student" style="rounded=0;whiteSpace=wrap;html=1;labelBackgroundColor=none;fontSize=38;fillColor=#09555B;strokeColor=#BAC8D3;fontColor=#EEEEEE;" vertex="1" parent="1">
          <mxGeometry x="83" y="200" width="150" height="80" as="geometry" />
        </mxCell>
        <mxCell id="3IWlOYprFqnitsd2QqqG-4" value="teach" style="rhombus;whiteSpace=wrap;html=1;fontSize=27;labelBackgroundColor=none;fillColor=#09555B;strokeColor=#BAC8D3;fontColor=#EEEEEE;" vertex="1" parent="1">
          <mxGeometry x="360" y="190" width="110" height="100" as="geometry" />
        </mxCell>
        <mxCell id="3IWlOYprFqnitsd2QqqG-6" value="&lt;font style=&quot;font-size: 28px;&quot;&gt;name&lt;/font&gt;" style="ellipse;whiteSpace=wrap;html=1;fontStyle=2;labelBackgroundColor=none;fillColor=#09555B;strokeColor=#BAC8D3;fontColor=#EEEEEE;" vertex="1" parent="1">
          <mxGeometry x="210" y="70" width="80" height="60" as="geometry" />
        </mxCell>
        <mxCell id="3IWlOYprFqnitsd2QqqG-7" value="&lt;font style=&quot;font-size: 28px;&quot;&gt;sid&lt;/font&gt;" style="ellipse;whiteSpace=wrap;html=1;fontSize=20;labelBackgroundColor=none;fillColor=#09555B;strokeColor=#BAC8D3;fontColor=#EEEEEE;" vertex="1" parent="1">
          <mxGeometry x="60" y="90" width="90" height="60" as="geometry" />
        </mxCell>
        <mxCell id="3IWlOYprFqnitsd2QqqG-8" value="&lt;font style=&quot;font-size: 28px;&quot;&gt;DOB&lt;/font&gt;" style="ellipse;whiteSpace=wrap;html=1;labelBackgroundColor=none;fillColor=#09555B;strokeColor=#BAC8D3;fontColor=#EEEEEE;" vertex="1" parent="1">
          <mxGeometry x="40" y="310" width="100" height="70" as="geometry" />
        </mxCell>
        <mxCell id="3IWlOYprFqnitsd2QqqG-9" value="&lt;font style=&quot;font-size: 22px;&quot;&gt;address&lt;/font&gt;" style="ellipse;whiteSpace=wrap;html=1;labelBackgroundColor=none;fillColor=#09555B;strokeColor=#BAC8D3;fontColor=#EEEEEE;" vertex="1" parent="1">
          <mxGeometry x="230" y="350" width="100" height="70" as="geometry" />
        </mxCell>
        <mxCell id="3IWlOYprFqnitsd2QqqG-10" value="" style="endArrow=none;html=1;rounded=0;entryX=0.445;entryY=1.003;entryDx=0;entryDy=0;entryPerimeter=0;exitX=0.748;exitY=0.089;exitDx=0;exitDy=0;exitPerimeter=0;labelBackgroundColor=none;strokeColor=#0B4D6A;fontColor=default;" edge="1" parent="1" source="3IWlOYprFqnitsd2QqqG-8" target="3IWlOYprFqnitsd2QqqG-3">
          <mxGeometry width="50" height="50" relative="1" as="geometry">
            <mxPoint x="110" y="320" as="sourcePoint" />
            <mxPoint x="160" y="270" as="targetPoint" />
          </mxGeometry>
        </mxCell>
        <mxCell id="3IWlOYprFqnitsd2QqqG-11" value="" style="endArrow=none;html=1;rounded=0;exitX=0.75;exitY=1;exitDx=0;exitDy=0;entryX=0.384;entryY=0.026;entryDx=0;entryDy=0;entryPerimeter=0;labelBackgroundColor=none;strokeColor=#0B4D6A;fontColor=default;" edge="1" parent="1" source="3IWlOYprFqnitsd2QqqG-3" target="3IWlOYprFqnitsd2QqqG-9">
          <mxGeometry width="50" height="50" relative="1" as="geometry">
            <mxPoint x="400" y="320" as="sourcePoint" />
            <mxPoint x="450" y="270" as="targetPoint" />
          </mxGeometry>
        </mxCell>
        <mxCell id="3IWlOYprFqnitsd2QqqG-12" value="" style="endArrow=none;html=1;rounded=0;exitX=0.38;exitY=0.983;exitDx=0;exitDy=0;exitPerimeter=0;entryX=0.84;entryY=-0.027;entryDx=0;entryDy=0;entryPerimeter=0;labelBackgroundColor=none;strokeColor=#0B4D6A;fontColor=default;" edge="1" parent="1" source="3IWlOYprFqnitsd2QqqG-6" target="3IWlOYprFqnitsd2QqqG-3">
          <mxGeometry width="50" height="50" relative="1" as="geometry">
            <mxPoint x="400" y="320" as="sourcePoint" />
            <mxPoint x="220" y="190" as="targetPoint" />
            <Array as="points" />
          </mxGeometry>
        </mxCell>
        <mxCell id="3IWlOYprFqnitsd2QqqG-13" value="" style="endArrow=none;html=1;rounded=0;entryX=0.5;entryY=1;entryDx=0;entryDy=0;labelBackgroundColor=none;strokeColor=#0B4D6A;fontColor=default;" edge="1" parent="1" target="3IWlOYprFqnitsd2QqqG-7">
          <mxGeometry width="50" height="50" relative="1" as="geometry">
            <mxPoint x="110" y="200" as="sourcePoint" />
            <mxPoint x="130" y="140" as="targetPoint" />
            <Array as="points" />
          </mxGeometry>
        </mxCell>
        <mxCell id="3IWlOYprFqnitsd2QqqG-14" value="" style="endArrow=none;html=1;rounded=0;entryX=0;entryY=0.5;entryDx=0;entryDy=0;exitX=0;exitY=0.5;exitDx=0;exitDy=0;labelBackgroundColor=none;strokeColor=#0B4D6A;fontColor=default;" edge="1" parent="1" source="3IWlOYprFqnitsd2QqqG-4" target="3IWlOYprFqnitsd2QqqG-4">
          <mxGeometry width="50" height="50" relative="1" as="geometry">
            <mxPoint x="400" y="320" as="sourcePoint" />
            <mxPoint x="450" y="270" as="targetPoint" />
            <Array as="points">
              <mxPoint x="230" y="240" />
            </Array>
          </mxGeometry>
        </mxCell>
        <mxCell id="3IWlOYprFqnitsd2QqqG-15" value="" style="endArrow=none;html=1;rounded=0;entryX=1;entryY=0.5;entryDx=0;entryDy=0;exitX=0;exitY=0.5;exitDx=0;exitDy=0;labelBackgroundColor=none;strokeColor=#0B4D6A;fontColor=default;" edge="1" parent="1" source="3IWlOYprFqnitsd2QqqG-2" target="3IWlOYprFqnitsd2QqqG-4">
          <mxGeometry width="50" height="50" relative="1" as="geometry">
            <mxPoint x="400" y="320" as="sourcePoint" />
            <mxPoint x="450" y="270" as="targetPoint" />
          </mxGeometry>
        </mxCell>
        <mxCell id="3IWlOYprFqnitsd2QqqG-17" value="&lt;font style=&quot;font-size: 25px;&quot;&gt;tid&lt;/font&gt;" style="ellipse;whiteSpace=wrap;html=1;labelBackgroundColor=none;fillColor=#09555B;strokeColor=#BAC8D3;fontColor=#EEEEEE;" vertex="1" parent="1">
          <mxGeometry x="510" y="50" width="100" height="70" as="geometry" />
        </mxCell>
        <mxCell id="3IWlOYprFqnitsd2QqqG-19" value="&lt;font style=&quot;font-size: 25px;&quot;&gt;name&lt;/font&gt;" style="ellipse;whiteSpace=wrap;html=1;labelBackgroundColor=none;fillColor=#09555B;strokeColor=#BAC8D3;fontColor=#EEEEEE;" vertex="1" parent="1">
          <mxGeometry x="670" y="60" width="90" height="70" as="geometry" />
        </mxCell>
        <mxCell id="3IWlOYprFqnitsd2QqqG-20" value="" style="endArrow=none;html=1;rounded=0;entryX=0.608;entryY=0.957;entryDx=0;entryDy=0;entryPerimeter=0;exitX=0.115;exitY=0.013;exitDx=0;exitDy=0;exitPerimeter=0;labelBackgroundColor=none;strokeColor=#0B4D6A;fontColor=default;" edge="1" parent="1" source="3IWlOYprFqnitsd2QqqG-2" target="3IWlOYprFqnitsd2QqqG-17">
          <mxGeometry width="50" height="50" relative="1" as="geometry">
            <mxPoint x="410" y="320" as="sourcePoint" />
            <mxPoint x="450" y="270" as="targetPoint" />
          </mxGeometry>
        </mxCell>
        <mxCell id="3IWlOYprFqnitsd2QqqG-21" value="" style="endArrow=none;html=1;rounded=0;entryX=0.356;entryY=0.94;entryDx=0;entryDy=0;entryPerimeter=0;labelBackgroundColor=none;strokeColor=#0B4D6A;fontColor=default;" edge="1" parent="1" source="3IWlOYprFqnitsd2QqqG-2" target="3IWlOYprFqnitsd2QqqG-19">
          <mxGeometry width="50" height="50" relative="1" as="geometry">
            <mxPoint x="400" y="320" as="sourcePoint" />
            <mxPoint x="450" y="270" as="targetPoint" />
          </mxGeometry>
        </mxCell>
        <mxCell id="3IWlOYprFqnitsd2QqqG-24" value="" style="endArrow=none;html=1;rounded=0;labelBackgroundColor=none;strokeColor=#0B4D6A;fontColor=default;" edge="1" parent="1">
          <mxGeometry width="50" height="50" relative="1" as="geometry">
            <mxPoint x="80" y="130" as="sourcePoint" />
            <mxPoint x="130" y="130" as="targetPoint" />
            <Array as="points">
              <mxPoint x="130" y="130" />
              <mxPoint x="105" y="130" />
            </Array>
          </mxGeometry>
        </mxCell>
        <mxCell id="3IWlOYprFqnitsd2QqqG-25" value="" style="endArrow=none;html=1;rounded=0;labelBackgroundColor=none;strokeColor=#0B4D6A;fontColor=default;" edge="1" parent="1">
          <mxGeometry width="50" height="50" relative="1" as="geometry">
            <mxPoint x="580" y="100" as="sourcePoint" />
            <mxPoint x="540" y="100" as="targetPoint" />
            <Array as="points">
              <mxPoint x="560" y="100" />
            </Array>
          </mxGeometry>
        </mxCell>
        <mxCell id="3IWlOYprFqnitsd2QqqG-26" value="&lt;font style=&quot;font-size: 18px;&quot;&gt;phone_no&lt;/font&gt;." style="ellipse;shape=doubleEllipse;whiteSpace=wrap;html=1;strokeColor=#BAC8D3;fontColor=#EEEEEE;fillColor=#09555B;" vertex="1" parent="1">
          <mxGeometry x="120" y="410" width="100" height="60" as="geometry" />
        </mxCell>
        <mxCell id="3IWlOYprFqnitsd2QqqG-27" value="" style="endArrow=none;html=1;rounded=0;strokeColor=#0B4D6A;exitX=0.412;exitY=0.077;exitDx=0;exitDy=0;exitPerimeter=0;entryX=0.623;entryY=1.033;entryDx=0;entryDy=0;entryPerimeter=0;" edge="1" parent="1" source="3IWlOYprFqnitsd2QqqG-26" target="3IWlOYprFqnitsd2QqqG-3">
          <mxGeometry width="50" height="50" relative="1" as="geometry">
            <mxPoint x="400" y="310" as="sourcePoint" />
            <mxPoint x="450" y="260" as="targetPoint" />
          </mxGeometry>
        </mxCell>
        <mxCell id="3IWlOYprFqnitsd2QqqG-29" value="Attribute" style="ellipse;whiteSpace=wrap;html=1;align=center;dashed=1;strokeColor=#BAC8D3;fontColor=#EEEEEE;fillColor=#09555B;" vertex="1" parent="1">
          <mxGeometry x="270" y="280" width="100" height="40" as="geometry" />
        </mxCell>
        <mxCell id="3IWlOYprFqnitsd2QqqG-30" value="" style="endArrow=none;html=1;rounded=0;strokeColor=#0B4D6A;exitX=0.28;exitY=0.045;exitDx=0;exitDy=0;exitPerimeter=0;entryX=1;entryY=0.75;entryDx=0;entryDy=0;" edge="1" parent="1" source="3IWlOYprFqnitsd2QqqG-29" target="3IWlOYprFqnitsd2QqqG-3">
          <mxGeometry width="50" height="50" relative="1" as="geometry">
            <mxPoint x="400" y="310" as="sourcePoint" />
            <mxPoint x="450" y="260" as="targetPoint" />
          </mxGeometry>
        </mxCell>
      </root>
    </mxGraphModel>
  </diagram>
</mxfile>
